<mxfile host="app.diagrams.net" modified="2021-04-03T11:59:02.470Z" agent="5.0 (X11)" etag="iL_e0rcRwNg71iSBcW-B" version="14.5.6" type="github">
  <diagram id="rpLSf7-xhN-vGm6jbD5C" name="Page-1">
    <mxGraphModel dx="2249" dy="742" grid="1" gridSize="10" guides="1" tooltips="1" connect="1" arrows="1" fold="1" page="1" pageScale="1" pageWidth="827" pageHeight="1169" math="0" shadow="0">
      <root>
        <mxCell id="0" />
        <mxCell id="1" parent="0" />
        <mxCell id="tYz2P0I3mBLXz6eOGaiO-1" value="" style="shape=image;verticalLabelPosition=bottom;labelBackgroundColor=#ffffff;verticalAlign=top;aspect=fixed;imageAspect=0;image=data:image/png,iVBORw0KGgoAAAANSUhEUgAAARUAAAEKCAYAAAA8bsGsAAAAOXRFWHRTb2Z0d2FyZQBNYXRwbG90bGliIHZlcnNpb24zLjMuNCwgaHR0cHM6Ly9tYXRwbG90bGliLm9yZy8QVMy6AAAACXBIWXMAAAsTAAALEwEAmpwYAAAVIElEQVR4nO3dfZQddX3H8fdnd5NsNiEECMSYBAgawRiwhPCgHAuCPUTUQJUiHLFoqWktWhVbCeoRTns4B+oDopUeU6EGHxDEB6iCiDRAW8pDEJTHSOQxTwQIEPK8m/32jzuBJW52Z+/vd+/sjZ/XOXt2Zu78dr579+aTmbkz36uIwMwsl7aqCzCznYtDxcyycqiYWVYOFTPLyqFiZlk5VMwsq4aFiqTLJK2WdH+fZV+U9LCk30r6iaTxfR47R9JSSUskHdeousyssRq5p/JtYM52y24EZkbEQcDvgHMAJM0ATgHeVIy5RFJ7A2szswZpWKhExK3Amu2W/TIieorZ24EpxfQJwA8iYnNEPAYsBQ5rVG1m1jgdFW77r4Ari+nJ1EJmm2XFsj8gaR4wD6CtY+QhnbvuVXcB7Zt66x4L0DM6LZPbetKuZu4ZraTx2po0HNI2T1vP4OsMpDfx1Zu6/Z7RaeOV9vJLHp/y/PWsWcPW9ev7fQVUEiqSPgf0AN8b6tiIWAAsABgzYWrMePen6q5j/MPr6h4L8NyBY5PGdz2b9q/62Zlpf74R65OG0zsibXzXqrRQ3TQhLdU6n0vb/pqZScNp35hWf+rfb+Ne9afS8ou+usPHmh4qkj4EvBs4Nl658Wg5MLXPalOKZWbWYpr6lrKkOcBngLkRsaHPQ9cCp0gaJWkaMB24s5m1mVkeDdtTkXQFcDQwQdIy4Fxq7/aMAm6UBHB7RPxtRDwg6SrgQWqHRWdGROoRv5lVoGGhEhGn9rP40gHWPx84v1H1mFlz+IpaM8vKoWJmWTlUzCwrh4qZZeVQMbOsHCpmlpVDxcyycqiYWVYOFTPLyqFiZlk5VMwsqyqbNCXbOhLW7lt/T4qR67qStj92RVqXnxVvS3v6xyQ2h9g4Ma2fyPglaeO7x6b1E0nt5zLuiU1J49fM7EwaP/bJtOevY3PiRxb31r9P0dY9wGN1/1Qzs344VMwsK4eKmWXlUDGzrBwqZpaVQ8XMsnKomFlWDhUzy8qhYmZZOVTMLCuHipll5VAxs6wcKmaWlUPFzLJyqJhZVg0LFUmXSVot6f4+y3aXdKOkR4rvuxXLJelrkpZK+q2kWY2qy8waq5FNmr4N/CtweZ9l84GbIuICSfOL+bOBdwLTi6/DgX8rvg9M0Duy/kY1617bXvdYgK6nk4Yn6038641Ym9Yk6fkD0rbftSpt+1tHpm3/xWlpTZZ6xm1NGr/Xbc8njX/u0AlJ45N2KQb40zVsTyUibgXWbLf4BGBhMb0QOLHP8suj5nZgvKRJjarNzBqn2edUJkbEymJ6FTCxmJ4MPNVnvWXFMjNrMZWdqI2IAIZ87CJpnqTFkhZvXb++AZWZWYpmh8rT2w5riu+ri+XLgal91ptSLPsDEbEgImZHxOz2MWMaWqyZDV2zQ+Va4PRi+nTgmj7L/7J4F+gI4MU+h0lm1kIa9u6PpCuAo4EJkpYB5wIXAFdJOgN4Aji5WP064HhgKbAB+HCj6jKzxmpYqETEqTt46Nh+1g3gzEbVYmbN4ytqzSwrh4qZZeVQMbOsHCpmlpVDxcyycqiYWVYOFTPLyqFiZlk1sp9Kw7V1Q9fK+nty9I5I2353V1omT7otrR/HC9PT/nypv3/ns2n9ULrHpm0/tf6to9LGt69P+/uveMeeSeNTf//Nu9XfiygGaEXkPRUzy8qhYmZZOVTMLCuHipll5VAxs6wcKmaWlUPFzLJyqJhZVg4VM8vKoWJmWTlUzCwrh4qZZeVQMbOsHCpmlpVDxcyycqiYWVYt3aQJQSTE4u4Pdydt/vk3pHXJ2TAp7enfMKk3aXzHxrQmS6+9bVPS+KeOGZ00vmNj0nA2j0/7/cc9krb9SPzX17Gh/iZLtQLShu+I91TMLCuHipllVUmoSPqUpAck3S/pCkmdkqZJukPSUklXShpZRW1mlqbpoSJpMvD3wOyImAm0A6cAFwIXRcTrgeeBM5pdm5mlq+rwpwMYLakD6AJWAscAVxePLwROrKY0M0vR9FCJiOXAl4AnqYXJi8DdwAsR0VOstgyY3N94SfMkLZa0uGfj+maUbGZDUMXhz27ACcA04LXAGGBO2fERsSAiZkfE7I7RYxpUpZnVq4rDn3cAj0XEMxHRDfwYOBIYXxwOAUwBlldQm5klqiJUngSOkNQlScCxwIPAIuCkYp3TgWsqqM3MElVxTuUOaidkfw3cV9SwADgbOEvSUmAP4NJm12Zm6Sq5TD8izgXO3W7xo8BhFZRjZhn5ilozy8qhYmZZOVTMLCuHipll5VAxs6xauklTCHoT7mVeu0/ar795fNJwtDVtfPumtCZDPV1pTZ42Tki7kbw9rccTm/ZMq3/kC2n/p67bN2k40+bfljR++fy3Jo3vSLnLZYCn3nsqZpZVqVCRdGCjCzGznUPZPZVLJN0p6e8k7drQisyspZUKlYh4G/ABYCpwt6TvS/qzhlZmZi2p9DmViHgE+Dy1e3SOAr4m6WFJ721UcWbWesqeUzlI0kXAQ9Q6tL0nIt5YTF/UwPrMrMWUfU/168C3gM9GxMufthIRKyR9viGVmVlLKhsq7wI2RsRWAEltQGdEbIiI7zSsOjNrOWXPqfwK6Ptxcl3FMjOzVykbKp0RsW7bTDHd1ZiSzKyVlQ2V9ZJmbZuRdAiQ+Em2ZrYzKntO5ZPADyWtAAS8Bnh/o4oys9ZVKlQi4i5JBwD7F4uWFJ3wzcxeZSi36R4K7FuMmSWJiLi8IVWZWcsqFSqSvgO8DrgX2HbDfgAOFTN7lbJ7KrOBGRERjSzGzFpf2VC5n9rJ2ZUNrGXI2npg1Jr6c27CPS8mbf/Rk9Ju2O5aldZk6TV3pZ3WevK4tCZV6yantePZMC3xtFx72v9xIx9PazK1ce+ewVcaQO9RByeNT9W1qv7nr22AP13ZV9UE4EFJdwKbty2MiLl1V2VmO6WyoXJeI4sws51H2beUb5G0DzA9In4lqQtob2xpZtaKyrY++Ai1zz/+ZrFoMvDTBtVkZi2s7Jm2M4EjgbXwcsOmverdqKTxkq4umjw9JOktknaXdKOkR4rvu9X7882sOmVDZXNEbNk2I6mD2nUq9boY+EVEHAC8mVrzp/nATRExHbipmDezFlM2VG6R9FlgdNGb9ofAf9azwaJx9p8ClwJExJaIeAE4AVhYrLYQOLGen29m1SobKvOBZ4D7gL8BrqPWr7Ye04qf9R+S7pH0LUljgIkRse06mFXAxP4GS5onabGkxT2bUj4Nycwaoey7P73AvxdfObY5C/h4RNwh6WK2O9SJiJDU7+FVRCwAFgCMmTDVV/iaDTNl7/15jH7OoUTEfnVscxmwLCLuKOavphYqT0uaFBErJU0CVtfxs82sYkO592ebTuAvgN3r2WBErJL0lKT9I2IJcCzwYPF1OnBB8f2aen6+mVWr7OHPc9st+qqku4Ev1LndjwPfkzQSeBT4MLXzO1dJOgN4Aji5zp9tZhUqe/gzq89sG7U9l7rvRouIe3n13s82x9b7M81seCgbDF/uM90DPI73JMysH2UPf97e6ELMbOdQ9vDnrIEej4iv5ClnaKIdusfW35PkqTnjk7bf25H2jnZv4i2Zy48akTR+1LNp/Vx6Uj+kZURv0vCOZ9L6oYx7Kq0fytpDtw6+0gCeOrYzabzSNs/oNfU//20DPHVDeffnUODaYv49wJ3AI3VXZWY7pbKhMgWYFREvAUg6D/h5RJzWqMLMrDWVvUx/IrClz/wWdnAZvZn9cSu7p3I5cKeknxTzJ/LKzX9mZi8r++7P+ZKuB95WLPpwRNzTuLLMrFUNpR16F7A2Ii4Glkma1qCazKyFlW0neS5wNnBOsWgE8N1GFWVmravsnsqfA3OB9QARsQLYpVFFmVnrKhsqW4pPJwyAoqmSmdkfKBsqV0n6JjC+6Kz/K/I0bDKzncyg7/5IEnAlcAC1bvr7A1+IiBsbXJuZtaBBQ6Vo7XhdRBwIOEjMbEBlD39+LenQhlZiZjuFslfUHg6cJulxau8AidpOzEGNKszMWtOAoSJp74h4EjiuSfWYWYsbbE/lp9TuTn5C0o8i4n1NqMnMWthgodK3i089H8fRUG3dMObp+hvNrD4krUlR76i0Jk27LEtrUrRuWlr9WzvT6h+5Zih3efQzfkVak6XJi7YMvtIAXnxd2vZrnVXrt2XvtPqjO+35XzG+/i5h3Xft+LHBqoodTJuZ9WuwPZU3S1pLbY9ldDENr5yoHdfQ6sys5QwYKhGR2EXVzP7YpB2UmZltx6FiZlk5VMwsK4eKmWVVWahIapd0j6SfFfPTJN0haamkK4sPbzezFlPlnsongIf6zF8IXBQRrweeB86opCozS1JJqEiaArwL+FYxL+AY4OpilYXUPgbEzFpMVXsqXwU+A2y7Tn0P4IWI2Hbd8zJgcn8DJc2TtFjS4u7N6xteqJkNTdNDRdK7gdURcXc94yNiQUTMjojZI0a5Va7ZcFO2n0pORwJzJR0PdALjgIup9b/tKPZWpgDLK6jNzBI1fU8lIs6JiCkRsS9wCvBfEfEBYBFwUrHa6cA1za7NzNINp+tUzgbOkrSU2jmWSyuux8zqUMXhz8si4mbg5mL6UeCwKusxs3SVhkqq7l2CFcekNTpKodFpTXqemTUqaXzv2O6k8dqcdhN6/MlLSeP3+FHaifYn54xIGj/ipbQmV21Pp/399jk47bThM+vSnr+uyfW/flZ37vi1P5wOf8xsJ+BQMbOsHCpmlpVDxcyycqiYWVYOFTPLyqFiZlk5VMwsK4eKmWXlUDGzrBwqZpaVQ8XMsnKomFlWDhUzy8qhYmZZOVTMLKuWbtI0tmszRx70u7rH37Oy308BKa2tLZLGdy1Ja/Kz/o0bk8YfsOfTSeNXrR+XNH7svDVp23/yNUnjd5/5fNL4FSt2Txq/99i07W/uSfvnu9+uz9Y99vftO27w5D0VM8vKoWJmWTlUzCwrh4qZZeVQMbOsHCpmlpVDxcyycqiYWVYOFTPLqumhImmqpEWSHpT0gKRPFMt3l3SjpEeK77s1uzYzS1fFnkoP8OmImAEcAZwpaQYwH7gpIqYDNxXzZtZimh4qEbEyIn5dTL8EPARMBk4AFharLQRObHZtZpau0nMqkvYFDgbuACZGxMrioVXAxKrqMrP6VRYqksYCPwI+GRFr+z4WEQH0ewuwpHmSFktavOmFTU2o1MyGopJQkTSCWqB8LyJ+XCx+WtKk4vFJwOr+xkbEgoiYHRGzO8d3NqdgMyut6f1UJAm4FHgoIr7S56FrgdOBC4rv1wz2s/YZuZYFe/+y7lrO7Ty87rEA00en9SNZ/Q9p/Ui++5NjksbPff8NSeNvGXFA0viOtq1J4x8bvUfS+E/sd1PS+PM3HZ80PtXYkZuTxo8eoCfKYNq0415CVTRpOhL4IHCfpHuLZZ+lFiZXSToDeAI4uYLazCxR00MlIv4H0A4ePraZtZhZfr6i1syycqiYWVYOFTPLyqFiZlk5VMwsK4eKmWXlUDGzrBwqZpaVQ8XMsnKomFlWDhUzy8qhYmZZOVTMLCuHipllVUU/lWzaEF1tI+sef2DXU0nbH9O2JWl8b+yoA0Q53fttTBr/2Oa9ksYfMHbl4CsN4PuXHJc0fsLcVUnjO1V/kyKAdevSOg+u76n/tQvwzPoxSeOX3r133WPXvrRoh495T8XMsnKomFlWDhUzy8qhYmZZOVTMLCuHipll5VAxs6wcKmaWlUPFzLJyqJhZVg4VM8vKoWJmWTlUzCyrYRcqkuZIWiJpqaT5VddjZkMzrEJFUjvwDeCdwAzgVEkzqq3KzIZiWIUKcBiwNCIejYgtwA+AEyquycyGQBFRdQ0vk3QSMCci/rqY/yBweER8rM8684B5xez+wJKmF1qfCcCzVRdRJ9dejeFc+z4RsWd/D7Rc57eIWAAsqLqOoZK0OCJmV11HPVx7NVq19uF2+LMcmNpnfkqxzMxaxHALlbuA6ZKmSRoJnAJcW3FNZjYEw+rwJyJ6JH0MuAFoBy6LiAcqLiuXljtk68O1V6Mlax9WJ2rNrPUNt8MfM2txDhUzy8qhktlgtxlIOkvSg5J+K+kmSftUUWd/yt4iIel9kkLSsHm7s0ztkk4unvsHJH2/2TXuSInXzN6SFkm6p3jdHF9FnaVFhL8yfVE7ufx7YD9gJPAbYMZ267wd6CqmPwpcWXXdZWsv1tsFuBW4HZhddd1DeN6nA/cAuxXze1Vd9xBqXwB8tJieATxedd0DfXlPJa9BbzOIiEURsaGYvZ3atTjDQdlbJP4ZuBDY1MziBlGm9o8A34iI5wEiYnWTa9yRMrUHMK6Y3hVY0cT6hsyhktdkoO8HNC8rlu3IGcD1Da2ovEFrlzQLmBoRP29mYSWUed7fALxB0v9Kul3SnKZVN7AytZ8HnCZpGXAd8PHmlFafYXWdyh8TSacBs4Gjqq6lDEltwFeAD1VcSr06qB0CHU1t7/BWSQdGxAtVFlXSqcC3I+LLkt4CfEfSzIjorbqw/nhPJa9StxlIegfwOWBuRGxuUm2DGaz2XYCZwM2SHgeOAK4dJidryzzvy4BrI6I7Ih4DfkctZKpWpvYzgKsAIuL/gE5qNxsOT1Wf1NmZvqj9b/goMI1XTrq9abt1DqZ2Ym561fUOtfbt1r+Z4XOitszzPgdYWExPoHbIsUeL1H498KFi+o3Uzqmo6tp39OU9lYwiogfYdpvBQ8BVEfGApH+SNLdY7YvAWOCHku6VNCzubSpZ+7BUsvYbgOckPQgsAv4xIp6rpuJXlKz908BHJP0GuIJawAzbS+F9mb6ZZeU9FTPLyqFiZlk5VMwsK4eKmWXlUDGzrBwqlo2kPYq3ye+VtErS8mJ6naRLqq7PmsNvKVtDSDoPWBcRX6q6Fmsu76lYw0k6WtLPiunzJC2U9N+SnpD0Xkn/Iuk+Sb+QNKJY7xBJt0i6W9INkiZV+1tYWQ4Vq8LrgGOAucB3gUURcSCwEXhXESxfB06KiEOAy4DzqyrWhsZ3KVsVro+Ibkn3UWtS9Iti+X3AvtQ+eXImcKMkinVWVlCn1cGhYlXYDBARvZK6+9zH0kvtNSnggYh4S1UFWv18+GPD0RJgz6J3CJJGSHpTxTVZSQ4VG3ai1lbxJODC4s7ce4G3VlqUlea3lM0sK++pmFlWDhUzy8qhYmZZOVTMLCuHipll5VAxs6wcKmaW1f8DgkYZ42Ft+XIAAAAASUVORK5CYII=;" vertex="1" parent="1">
          <mxGeometry x="299" y="651" width="277" height="266" as="geometry" />
        </mxCell>
        <mxCell id="tYz2P0I3mBLXz6eOGaiO-3" value="" style="shape=image;verticalLabelPosition=bottom;labelBackgroundColor=#ffffff;verticalAlign=top;aspect=fixed;imageAspect=0;image=data:image/png,iVBORw0KGgoAAAANSUhEUgAAARcAAAEGCAYAAABPWdHqAAAAOXRFWHRTb2Z0d2FyZQBNYXRwbG90bGliIHZlcnNpb24zLjMuNCwgaHR0cHM6Ly9tYXRwbG90bGliLm9yZy8QVMy6AAAACXBIWXMAAAsTAAALEwEAmpwYAABA+klEQVR4nO2de5wkZXX3f6e7+t5z25nZ+/3CZVkuCysuguGygCC+gLxR8VVD1IhGTdQ3eSPGvK8kkVxMvMSYaFBRYkCNIoIaQSCIorCwwLLssuyF3WV3ZnfnPjt9767q5/2j6qmuqq7q6emu6uqZeb6fz3y2b9t9pqbrV+ec5zznEGMMAoFA4DYBvw0QCARzEyEuAoHAE4S4CAQCTxDiIhAIPEGIi0Ag8ATJbwPcoK+vj61evdpvMwSCecdzzz03yhjrt3tuTojL6tWrsWPHDr/NEAjmHUT0mtNzIiwSCASeIMRFIBB4ghAXgUDgCUJcBAKBJwhxEQgEniDERSAQeIIQF4FA4AlCXCwcHE7jNwdH/TZDIJj1zIkiOjc4lSvhr37yMoZTeew9kcKOv7jSb5MEglmNEBeNHz0/gPueH9Dv54oKYuGgjxYJBLMbERZp9CUjpvuDk1mfLBEI5gZCXDSCATLdPzaR88kSgWBuIMRFoyiXTfcHxoXnIhA0gxAXjSpxEZ6LQNAUIqGrUZAVAMDq3jjkMhPiIhA0ifBcNAqa5/LARy/Bsu4YRlIFny0SCGY3Qlw0iooqLhEpgL5kBKMZIS4CQTMIcdHgOZdwMIC+ZBhj6aLPFgkEsxshLhoFuYxQkBAIEHqTEZzKlaqSvAKBoH6EuGgU5TLCQfVw9CbDAIDxjPBeBIJG8U1ciChKRM8Q0YtEtIeI/lJ7fA0RbSeig0T0fSIKt8KeolxGWNLEJaFW646mRd5FIGgUPz2XAoArGGPnAjgPwDVEtBXA3wP4ImNsPYAJAO9vhTFGcenvUPVsTHguAkHD+CYuTCWt3Q1pPwzAFQB+qD1+N4AbW2FPUSkjIqkbFbnn8os9JyErIu8iEDSCrzkXIgoS0U4AwwAeAfAqgEnGmKy9ZADAMof/eysR7SCiHSMjI03bUpCVSlik5Vzu2X4UT+xv/r0FgvmIr+LCGFMYY+cBWA7gQgBnzOD/3skY28IY29LfbzvwbUYYE7rJiIQzl3QCgCimEwgapC1WixhjkwAeB3ARgG4i4tsSlgMYbIUNBUPOhYjwgw9dBEDtTPfskfFWmCAQzCn8XC3qJ6Ju7XYMwFUA9kIVmd/VXnYLgAdaYY8xoQsAiXAQwQDhG08extu+9lQrTBAI5hR+ei5LADxORLsAPAvgEcbYTwF8EsD/JqKDAHoBfLMVxqgJ3crhICJ0xUL6/XKZtcIMgWDO4NuuaMbYLgCbbR4/BDX/0lIKpTJ6E2at7YqF9EK6vKwgHhabyAWCemmLnEs7UFTMYREAdEYrYpIrKq02SSCY1Qhx0TCuFnE6DWFRVoiLQDAjhLhoWBO6ANBh9FxKQlwEgpkgxEXDLixihhyu8FwEgpkhxEWjUFIQDprnFJWUirqInItAMDOEuGgUlTIiIfPhkMuVfUWj6QLOvv1h/PcrQ602TSCYlQhxgVrDUlJYdUI3WknoHhhOI5WXcfuDL7faPIFgViLEBZX+udacy19efxbes3UVAGAqVwIg9hoJBPUixAXm5txGehJhfOzKDQAqvV3EqpFAUB9CXFDxRrrj1U3v4tow+jHRlU4gmBFCXAAcGc0AANb2J6qei2oNpIwtL09lS60xTCCYxQhxAXCYi0tftbgEAoRYKGgaNXJsQsyRFgimQ4gLgEOjGfTEQ7ZhEQDEwkFTP91UXrZ9nUAgqCDEBcDhkQzW2HgtnFjIXFyXLQpxEQimQ4gLgKPjWazudRYXntTliK0AAsH0CHEBMJktYkHCeTxStbgIz0UgmI55Ly4lpYxMUTG1V7AS08QlFCQAwnMRCOph3osLT84aG0NZWdgRBQD0JdV5RkJcBILpmffiwsv6a3kuS7pVcemKhSAFCJmCCIsEgukQ4pLXxCXqLC7LumMAVI8lFg4Kz0UgqAMhLjktLKrhuSztUsVlMltEIiyJhK5AUAdCXLjnEnPOuSzVPJepvIy48FwEgroQ4pKbPixaquVcACAeEeIiENTDvBeXU3UkdPlwtIUdEcTDkkjoCgR1MO/FZSpfQjBASFgK5YwQEe77w4vw4EcvQTwcFD1dBII6EOKSk9EZlUBENV93waoFWNwVRSIsYdfAKfx01/EWWSgQzE6EuORLNUMiK7xa96P3vuCVSQLBnGDei0sqLyMZqX8GdHAaD0cgEKj4Ji5EtIKIHieil4loDxF9THt8ARE9QkQHtH97vLQjX1KqWirU4sBwykNrBIK5g5+eiwzgTxhjGwFsBfARItoI4DYAjzHGNgB4TLvvGfmSgugMxGVNX1K/XS6zGq8UCOY3vokLY+wEY+x57XYKwF4AywDcAOBu7WV3A7jRSzsKcrmq638t/vrGs3DT5mUAgLwsVo0EAifaIudCRKsBbAawHcAixtgJ7amTABY5/J9biWgHEe0YGRlp+LNn6rnEwxI2r1IjtUxBiItA4ITv4kJESQD3Afg4Y2zK+BxjjAGwjT0YY3cyxrYwxrb09/c3/Pkz9VwA6DUxYo/R3EApM3z+F/swnMr7bcqcwldxIaIQVGG5hzH2I+3hISJaoj2/BMCwlzbkS2VEZuC5AKr3ArjnuWSLMlQdFfjBiwOT+Of/PogL73gM7/7GdvG3cAk/V4sIwDcB7GWMfcHw1IMAbtFu3wLgAS/tKMjKzD2XiHuey6lsCVs++ygeeVkMuPcLWamIyZMHRzElpju4gp+ey8UA3gPgCiLaqf28GcDfAbiKiA4AuFK77xmFUnlGORfA4Lm4sIFxYDKLbFHB/iGxxO0Xk9mi6f6ICI9cof7qMZdhjD0JwKkibVsrbCiXGYpKAzkXzXNxYwMjH7YmBtz7x6RlguZwqoD1Czt8smbu4HtC108KsjqAfqaeS0LPubggLhlVVEbELGrfmKjyXMTfwg3mubioYc1MPZe4vlrUfFgkPBf/mcyZPRfxt3CHeS0u+VKDnkuE51ya91xGNXEZTReneaXAKyazRYSlAP542wYESIiLW8xrcWnUc4lIAQQIyLqwFD2mhUPiC+0fk9kSVi2I439fdRqWdMUwLP4WrjCvxaVRz4WIkAhLrngufMB9uiCLojyfmMgW0RNXJ24u7IwIoXeJeS4ujXkugNZL10XPBQBGU+bQaHAyh2cOjwMAUvmSKO7yiMlsCV1xtafP8p449g+lxKZUF5jX4tLoahEA9MTDODnVfD3EaLqIHu2LzVeOOG/58q/x9n97CkfHsjj79l/gnu1Hm/48QTWT2ZL+N7hq4yIMpwp49si4z1bNfua1uHDPJRqa+WE4f1UPnn9tArJSbvjzGWMYyxSwrEcdXcLFjjOh1V/sHJgEADy0+2TDnyVw5lSupDdhv/LMhYiFgvi5ONZNM6/FhZ/MEWnmnsvWtb1IFWS8fGJq+hc7kC0qyJfK+tA1q7jwpncnT+UAAHK5cSFrB8bSBdz33IDfZpiQlTJyJQXJiCou8bCE9QuTODSa8dmy2c+8FpdmPJetaxYAALYfatx9HtXyLXzoWsEyVaA3oSYZj0+q4ZfSpnmAfEmpKx/0of94Dn/ygxcx5EI46RZ8CwevugaAJV1RnJjM+WXSnGFei0sznsvCziiW98Sw89hkw5/Pa1v4LGqr59KbiAAADmtXUbkNxaUgKzjj/z6Ez/5s77SvPTyaBQAU5fbxwHiVdcLQR3lpdwwnT7WPAM5W5rW4NOO5AMB5K7qbEpcxq+diOenC2irWweE0gPb0XAYn1Cv8N588PK19vK6oneY+2YnLkq4oUgUZqXzJ6b8J6mBei0szngugisvgZK7hJkO8xoUndK1XdC5+g5qLbmwN0C4cm6iED04rLOmCjNW3/QwprZVBO43DTWvikjSGRZrYnxDeS1PMa3HR61wa9Fw2LesCALxyorF2Cbrn0qXOoi5YevJar/Dt6LkcG8/qt8cz9lsYXhszJ0fbqViQN/zim1GByt/juMd5l2/95jB+2GYJbjeZ1+JS8VwaOwwLtITrVIPu82i6iI6ohI5oyGQPJ28Rl3ZcLTo2UREXJ49kYMJ8kuba0HMxhUWa5/L733rWJJ5u85c/eRl/+oMXPXt/v5nX4pIryoiGAtOOcnWCD1NLN9i5bCxTRF8youdWCiWruJjvt6PnMjCeQ4d2HHIOHon1BHWjyZZbZPSwyCAunVFs0Zqw722i1KBe5mrl9bwWl2xR0bvKNUIyqolLg31dhk7l0ZcMIxgghIJkCosYY1VhUSov68ndduHYRBanLVYbKzklao9axMVJhPyA7w8zei6BAOHzbz8XgFpg5zVjDuFkM6y+7Wf4118edP19Z8K8EpcdR8Zx92+P6PdzxZlNW7TC4/RGxKVcZth7YgqnaydmRAqawqKSwqo8lbFMEdd/5UmUmqgKdpvJbElfSncKi6yeS3smdM0Xme6YGvJ6JS7GvUuHXS7Y49+bzz20z9X3nSnzSlx+92tP4TMP7tHvZ4uKqXhqpgQDhHg42FBYdGwii1RBxqalalI4IgVMnkvOYZk8W1TaqgYjV1KQiEiISAHHXIrVc2kncckUZASo+jh3RCUQAVMeiYtxR/3hEXfFxbow4BfTigsRxYno/xLR17X7G4joLd6b5h08xs2WFMSaCIsA9YrXSOuF3YNqLH+WUVwMORaezOWFdEYG26h6NK95f/Fw0FE0rN302ymhmymo4mjNuwUChI6I5JnnYvR2m9lCYke7HN96PJdvASgAuEi7Pwjgs55Z1AJ4ojRXlBFvIiwCVHFJNeC57D0xhWCAcNpidfZ0WAqgIJfxhUf24/vPHtW/IL3JcNX/ta6++EmupCAWDiAelhzFJV9UcPqiSsPrdvJc0gW5KiTidMVDnomL8Tvzy33ujubKt0kFdD3iso4x9jkAJQBgjGXh3LV/VsCvGmpCt0lxiUoN5VxG0wX0JsJ6AV9ECqIol/Hlxw7gk/e9pC9v8/1FRgbbRFxKShlymSEWCiIWDiJXsj8OuZKCbWcuxIv/72os7Ii0TZ3LroFJ/PC5AVMy10h3LFzVX9ctuLhceeZCHBnL4tUR9xL13OsN+HyW1iMuRSKKQRurSkTroHoys5aMQVxizYpLRGpoCoBxmz+gFvJlDast13/lNwCABTZh0YBWW/LE/hG86Yu/8m2vTiUvFEQsZB8WGQWoKx6qGT61mj+//yUAcFyB64p56bmo73vj5mUIBgjfeeo1196bi0vQZ3WpR1w+A+AhACuI6B4AjwH4M0+t8piK5yKbKjMbIdFgWHQqV0KnUVykAIZsErXWsKgrFtJzLi8NTGLfUKpqNEaryGsiEQurnoudaPAvOhfxWI3wqdUEtDzLVRsX2T7vpbjw7+Bpizrw9i3Lce/2o44VzjOFh/2BBuu33GJacWGMPQLgJgC/D+C7ALYwxn7prVneEA6qv66bnktHpLGwqMpzkYK6R/Iv/+t8/XFjWHTwjmvxxg19urhwUWu0zqZZuOfCE7rWimLja/g87rglfMqXFJw45U+Yd3wyj5s2L8NX33W+7fOdsZBnq0V8hbEjKuHKMxehqJSrVtUapRIWtam4ENH5/AfAKgAnABwHsFJ7bNbB9xDxkzHnUs7FlbBICuiVqws7K6HQAoO4SMEAlvfEcXwyh3KZ6aswbgxnawSruNh6LsWy/hoAVa979ze246K//e8WWGsmU5Axmi5g3cIkpKD9acA9Fy8qaMc1bzMZkfS/8ZjDYDzGGH7y4vG665vaJSyqFRN8Xvs3CmALgBehJnLPAbADldWjWUNECiIFGemCjKKs5gKaFhe3PBdDnUV/MoKeeAgT2RK64+awaFlPDCWFYThV0D+30e0HzcJXtKLhIGIhyXYJNC9XBIj/OzxVOYl2vDYBQN0RHm5wj1cjcC9hVW/c8TXd8RBKCtPqodybfPzjFwb1ArdEWNLLDZwqdR/dO4w/+u4L+Ni2DfjEVadN+/48LPLZcXH2XBhjlzPGLofqsZzPGNvCGLsAwGaoy9GzDl4olSko+onQbJ1LIiKhpLAZFS4pZYZUXrbkXCoi19cRwefffi6WdEWxpi9h+r/LtfYMg5NZPSnYLmGR3SqQLkDasU8Y6oKMr29175TXxjRxWZBwfA1v2u12TmvHa5XWFIEA6Xk1p5wLP04H61xRahfPpZ5LxemMsZf4HcbYbgBnuvHhRHQXEQ0T0W7DYwuI6BEiOqD92+PGZwGV3c+ZgoysFvcnms25aPuLZpLU5SeSNSwC1BM1EQ7iijMW4alPbatail6uldoPTOT0z3RjflIj5C3iMpEtYffgKdNrjAIEqOJ44lQe+ZKCXQOV11oL7byGz+Ze1FW9GsfhK3XGk/77zx7F9V95sqnPXtgRNd2Ph4OISAHHsMj4va0HfsyD7ZpzMbCLiL5BRJdpP18HsMulz/82gGssj90G4DHG2AaoK1O3ufRZCGveQaog6308mk3o9iXVL6B1kNbLx6fwwtEJ2//DVyDsxKWvI2yqFrXaxxtLDUzk9HAoXVDw+L5hDLe4N22O51PCQX08y1v+2Xzi6cvV2u9x1tIuKGWGV06mTHuOWu25ZB32FBnRcyEGcfnkfS9h18CppvIw3MvddfvVANQhe72JsGNYxI9hveLCRb/R3f5uUY+4vBfAHgAf035e1h5rGsbYrwBY25fdAOBu7fbdAG5047OAymaxTEHW3fVmdkUDwGKtsZBxv89ouoA3f/nXeOu//tb2/9iJC883nLO82/Raa6+ZeFhCbyKM3YOn9BNyMlPEH9y9A982bMpsBUavxOl7XLB4Lmct7QQA7Dl+yrS6NJVrreeSKSogAqI1uhD2JXmitfqkb2Y5vVAqIxEOojNa+fv3JiOOYVFauxCm6xjC9+sDI/jK4+puaIc8dcuoZyk6zxj7ImPsrdrPFxljXl4iFzHGTmi3TwKwLUIgoluJaAcR7RgZGanrjXmzpUxBxovaLKBmE7pLNHExtkT81m8Om17z6MtDeN+3n9VnHNmJyxEtB3Dphn7T/yUivHFDH774jnP1x97+uhX4+e6TOK595pGxLJQyw9BUa2sbjUV0E4YTwzjLyfgaQA2LumIh7B6cMvWrabTh1nT8bNcJ2yK5bEHd+hGokZfgnst4pvq4NrNCV5DL+tK88bPsRIzbWu9nvuebz2BSm3fld5uYejYuHiaiQ9afVhjHVN/T9hAxxu7Uksxb+vv77V5SBe+e/71nj+EvfqymeZoNi/qTEQSoMlsIgJ5LSEYknDyVxx/8+w789yvDGE0XkSsq+MT3dwKw91wu2dBX9Rnfef/r8dbNy/X7H9u2wZSsO6K1kRxxiNm9wlhE99ErNujtIY2VxjnLUjQRYXVfAgMTWVP/Fy/Cou88/Ro+cu/zuN2wE56TKSqIT7MClIxICAcDpnBF0o57qglxyZeUKo+0NxF29Fy4qMxUgP1uzVGP47QFwOu0nzcC+DKA//DQpiEiWgIA2r+u7eqya3DdbTjBG0EKBrCwI6p7Lowx7Dmu7nJNF2RT3mU8U8SugUmMpotY1BkxLYN+9oZNuOcPXq9PAqhFNBTEwo5KIvKI1g+k1QPUda9ECqC/I4KPXrEBAEwztPOWsAgAOrXaIK/Dop/sPA4AtnOS1Ors2hcWIsKCRBjjBo8iPMPkqh0FuVw1QnhBLXHRRHwyW5rRqmTJ54bu9YRFY4afQcbYlwBc56FNDwK4Rbt9C4AH3HrjklLG2r4EvnnLFuz/7LX47ge2Ym1/sun3XdwV1edGn5zKYzxTxFptCdm4IW0iW9Sra+/9wFbTF6wnEcbF66u9FicWdVZWHPiV1Q9xCQcDehEaDzGNS8yVCt3KVy0RltRygJKCRFjN13gRFk3m1ONyZCxTdRXPFOprt9GbNCdaubg0s/xfkKs9F7Vy2X64nFHIhmcQ+vo9H2rao2upxg1A9WRcqSgiou8CuAxAHxENQN3H9HcA/pOI3g/gNQBvd+OzALW+5A3re7HtTDWNc9G6Xlfed0lXFAeG08gWZdx859P6ex8azeBVQyOgvSemdHFZVoeHUotFndVLqOOZApQya1l9Q66omJosVcTF7LkQmRPTfCd5vlRGPCIhGKCG9mdNx0S2hFhIPWkPjWT0rn+qjdN7LoCWCzGKS7BSK9UoBblcJS48B1NUylWjbow9h4+OZ7FigXPhn5GiUgZjzLdVo3pE4vOG2zKAw3DphGeMvdPhqW1uvL+VklKGFHA/hd7fEcFvXx3DoZEMXhvL4qqNi3Dpaf24Z/tRUzKRTyXsS4ar3OKZYhc+lRkwlilU1VF4Rb5k3pvFV96MV1reStT4BVd74JSQL6niFJECru7hKcplhIKEU9kSLlrXiyf2j2DfUMokLpmiYsp5OdGbCOs5LWBmYdHwVB4/eG4A73r9SlOldaFULSBcbPI2z2UKsh42HRnLOHq4dl5PSWEIS+0rLu9njJkSuES0xiN7PEUuMz0h5yYd2pWYhyUfunQdytof+uBwGuv6EyYPxhjSNMofX7EBY+kihqby2H64spo/kmqduGSLikkk41rLUGNCNy8rVULKjxcXnmAg4FpYNDyVxyWfexx33fI6FJUyzlzSiSf2j1QVqGULsp6ArkVnLGTyqrgI1JPQvfaffo2xTBG9iTBuvnCl/nheVqrqa7jnouZUzKKXKchY159AuiDrlcV2OLW8aOW2CiP1fOoP63ys7ZEV5rhJrRk6oiEoZabP8OlLhvWrYq6kVHkZfKmwGXoSYXz5nZuxvEd1kXnCdLiFeZeMpYubHhYVzKtF1iboiYiEMlNzUNFQEJ1R99pJDk7mUJTL2DU4CaBSdGg98eqd/BAPS6bfh3sVLxydcKyoBVQvgodT1oZTtTwX63gZQK3A7oiGsHJBvGrAnBG7xlZ+5l0cjy4RnQHgLABdRHST4alOqJsZZx1yueyZ5wJUurj3JSOmq11/0pwfqccdr5c/vGwdFiRCWN4Tx2ce3ONZiwA7pvIl/XcHKtMQfrlvGK9b3YOFnVE99DHCBWkkXUBfMoJlPTH89uCYKzbxXAhPfPYnIwgFSU/A5ksKpAAhU5Tras6ejARRVMr6xspQUP3+/Oj5Qbx4bBKP/clltv+vaEggWy8mBVmpmvIZNXkuZrIFBfHeIFYtiNf0XE7ZXLT8XI6udRk/HcBbAHQD+B+Gn/MBfMBzy1ymXGYoM0AKeiEuqlgcHs0gGgogHg6aBKTfsGz84cvW4WvvvsC1z16/MIlPX7cR12xaDKC1mxhTeVn/3YFKzdAPnhvA2//tKd0eq4fABWk0VUA0FMS6/iROTuVdsZ3vs+Lzu7vjIc37kKGUGbZ89lF87Hs71RO2Ds+F74bmORbj8u6rNbr2G3eIW70y24SuIedihff5Xabty3KCf8633/s6/M1bz9Y/yy8cjy5j7AEADxDRRYyxp1pokyeUtOrckCdhkXoYj4xm0JeMgIhMV+uFhhzLH2/b0HQy1w7rSdAKUnnZVMJu7OrHK47HMgV9/xWHey5TeRmxUADr+tVl+8MjGZy9vKspm/gyOPdceuJhJMJBZIoKHt5zEumCjJ+9dEKzd/q/A/+dMkUZPYmwyROw/l5mO4ziYq5fUcXF/Nn8O5EtKvjz+1/C+y5eg/ULk/pj8bCEsBRwHDxn/Jz+joguNG3puRARb2X5v4joy9afFtnnGnxQlBdhUScXl7Gs/oUzro7ceN5SvVWCF8ICQJ9iUM/+E7eYypnDIqOg8uM8li5WnYTG3ijccwGAQ6PNN6nmv/+QwXNJRCRkizIe2n3S9NrpKnSNtvJwy3iy1uoFYxQXa1hkFypyz+XJg6O4d/tRfOZBtYKcMYZMUUYyEkQ0FEBRLjuO9eWC0h0P6xfRoo/iUuvo7tX+3dEKQ7yGu7Ne1IAkI5Wrd5+h5+1X33U+lvXE0JuM4Kd/dIkntRycQICQaHBAWyOUywzpoqwLK2AW1GRUUpOa6WJVH2BjEjgWCmJlbxwBcm6UPRP4Phy+z6orFkI8ohbtBUjB4s5KwWM9ngtfAUvbhEXWXJqR6cMie8+FV1vzpevRdBGMqfU2PMQpyPYhHRfWZFjS63HaMqHLGPuJ9u/dTq+ZTfDNdF6GRYDZVb727CX67e54uKqrnNs02nKzEdJFGYzB1PDKZEtEwlRORlEpV52EZm8niIgUxJlLOvHrA6P4k6tPb8ou/vsXtbxGVOuPo05WJKzpS0BhDCNavmc6uBDycMvoCSg1dgby1y/qjJg8F8aYbpsRfp/X1CzWQumj4+r9Vb0JvXtezmGliyeDI6EAQtr7tWtY9BMietDpp5VGugHftOhNQrfyh3ajhqVREhEJ6RY1jkoZGkzbIQVI30jplHMBKlfs689dip3HJuua37Pz2CT+5r/22pfKGzwGvjQeD0vIFBV9heiDv7MWQH1ebCJsTeiWcdHaXoSCZNr9bYXX+izpiplW8Lj3YV0t4uKy72QKQOV7emRUFZSVvXF9Sd9p6Blfxo5IAd1zacuELoB/bJkVLYCLS8iDCl1jInPdwub3KjVKozOUGoGfMMbVIiOpvKzXgVSJS9QcFgHA9ectxRce2Y+3fe0pPPKJ30FvjZDj9gf3YOexSVy9cRG2rF5ges74+/P3TkTUFpwEVWjef8kabFjUgYvr2P7Bl6t5zkVWGDYu7UReVvTvlB08LFraHcXOY5MoKWWEgoGKuDiERXroownFa+NZBEhtVcG7/DmNay1oy+VEpFfl+rl5sVYP3Sf4D4CnAExAbez0lPbYrIJfZbzIuRh7gqx3YSNkoyTCUstyLtxz6bSICz++qbyMUW03sTXnEpGC+jRAnthc0hXDl95xHsYzRewfqu29rNT21nz/2WNVzxk9F979LqHlXNKGudCXntZfV0GlntA1hEWhYAChQKBmyMEFYHGnmsjnYsxDF6eELofvGD86lsGSrhgiUrDiuTisGBVkBVHtfcJBba+Sj55LPf1crgPwKtRWC18BcJCIrvXaMLfhCu5FWGRkbb9zw2evaXS0bCPw/ivWsOjFz1yNj1y+DkWljMFJXrFc7YWcps2ONu5N4hvypvsd+GrJ8zZtRI2eC+8yl9Cah9e7WdEI90rTBRmMMc0DIUhBsm3hweFh0dJuNUzm1bOV0MXec+FwAXltPKuvSkWnEZd8qdKEKqR5Lm0tLlA3Ll7OGLuMMXYpgMsBfNFbs9xH9rDOxYhXS831kDR01vcap5xLMiLpychDIxkEyDx7ibNxidru0pg24bmYdKF2lTHfh2S3jcIUFhlyLtmi0tCIkGgogACpVbJKmYEx9TskBQMo1QyLVDu4sHJPRk+6OiR0ObyYbixd1Hv38N/HrtCOvzd/n6QPdU9W6jnTUoyxg4b7hwCkPLLHM2QPl6IB4PVrFuCite60cGiURCTYVCuAetk/lMLHtW56djkX/tjLJ6awpCtme8zPWqYWyxkbOSXrnKTAQ4xJm4FlRnGtjDOpCH49Jf9GiEhNlBdk3ftVw6JpErqamPBKbZ5LyRuSrkasIRqf95QpyLogck/MqZDOWPnLV/G8ah9aD/XI+A4i+i8A/wm15eTbADzL9xsxxn7koX2uoSd0PQqLvv9B/2fEJSLT51yGpvL44XMD+PBl6xru83HIUPZut0+KezN7jk/hQkvClfOu16/EsfEs3ndJZYM9v9pOKy7a84o2ddJog3GTYWXKo2H/UwPDzRJhCU8eHMX7tE2h9YRFuaKCsBTQV4V4foaLzHQeLg990obNobFwwPScFeOGyGRYUptwtXCvmZV6PJcogCEAl0Jt7DQCIAZ1n9FbPLPMZfhVxot+Lu1CMizpm+yc+PMfvYR/eHgfXjg22fDncNf+O++/0HY7P79qKmWmJ1+tRENB3H79WaZ8TETbGDhdzmUqV9K9kj2Dp3DVF57Qx5QY/y8/gY1L34kGpj2cnMrj4HAaX3x0PwC1p4saFtX2XPg8IqCS++DCYPVcjKhzt8uQlTIKclkXxMi0nktlQ2QgQOiISC2fB2Vk2iPNGHNljIjfeFnn0i7wsCJTkBGW7Av2eJ5gwqFfaz3wE8SpRagxD7OyRom8FSJSx+PWOCEYY5jKl7C2L4l9Qyk8sncIB4bTeP7oBFYsiJvK7qO652IMi2YuLtedswQ/23VC73FbCYsY9p1M4cc7B/Fnbzrd5AlmiwrioaCe4+OeC7evlh1LutTd5DzETeiey3SrRebivK54yLVWFo1Qz2rRGiL6AhH9aFYX0fHVojnsuSQilZUNJ3gI4TSAqx70Ea0OV1/eYwaAo+fixHQrXvlSGSWF6aK1U/PABiZy+j4cDg+LjLvSG5mw+ZV3bsaKBTHdLp7QlZUyHtp9El/95atVHkKuJCMWDuqeHfdceOVurakTS7piKMhlvSAyqeWJplstsm4r6IyGfA2L6pHxHwP4JoCfAPC3428TcBd2TnsudYgL9ypOTDY+eopXiDqdIMmIhGs3LcbPd5+su99r5f+GauZc+JV4tUVcBidzWoPrymt56LTeUNjYiOdCROiIhHRvLxQkhIKEUrkiZpmCJfejlehbNxBWhvE5i8vCzgheHUnrKz2VhG5Aew+nCl0FEYOQdkZDbZ/QzTPGZt0uaCvcc/GiQrddqKftQkkThhOGOUszhV85a00r/OI7zsNbzhnGuTNsodARkWouRfOTZVWvWk/ExWRgIle1UsY9F+OK1kxXi3S7opLeXD0UDEAKqJ6LPq/bcsxzRbW/sHUDIS/yi4ecTz0156LoFwn+d5WCak4q7zBexDpsrTMm6dsH/KAecfknIvoMgF8A0Pv6Mcae98wqD1CE5wKgEvPzE6UR8qUywsFAzWmF0VAQ152zxPF5J5JRSW/0ZAd385f3xBAgtSk5AAxMZKtOcOtUQ6Dx8b0d0Ur+Qg2L1JwL/0zrMc+VFCxIhPWwiC9j5+oIi6KSmtDl723di+VY/l9STKFqV6z9PZezAbwHwBWohEVMuz9r0Ct0WzR2ww8qhVPOtS78JKjV0Ww68qXqNo1ukYxIODTiLI78ZOmOh3VhiYYCGJzI6b9bNBRAvlTduxdobLUIMCepQ0GCFCCUymX9M63HPFtUsKzb6Lko+uNSgGxX2ZZ1xzCSVndr52WlEhaFzeLiNBhN9Vwq79sZ9TehW8+RfhuAtYyxxjOAbYCsey5zOSzivUecv1A8oTjaxOjXfEmxPXHdYLqE7nhG/d164iF86NJ1OJUrYVl3FP/4i/0YmFC9sVhIvfIbvYP7/vAN+O4zRx13cU+H8f/xQXBKmem2VnkuWlgUsngu2aLi6LX88v9cBsaAO3/1Khir/K7W/je1Ni6aErqxELJFRd802WrqOdK7ofbRdW2sqh/MJ8+lVjc6/pzTF7Qe1E5q3ohLR0SqmdAdNey0vu3aMwAAD+wcBKCGRoB6Ak6gZNoceMGqHlywqqdxu4yei6QuRZcUpi+bW0OybFFG3JhzMSR0nZK5XAD4seW7yo15Iu6V2WGd5NhpqHi224LhNfXIWTeAV4joYcNStGsjVluFMg/qXOpJ6PLnClq7xPtfGDCNX62HfKlctavXLZIRCQXZuRBwJFVALBQ0rfrwJlw8j8R3Q/Odwe7YVUkK86VooBKmWfd0VVaLzBsIs6XpG4PzXBEvF0hYPRebpWilzFBSWJXnAlR3wmsV9XgunzHcJqjD6G/2xhzvCAfVYenhORwWhYLq9MIvPLIfo+kC/uqGTabnh6fypgTfrw+M4BPffxHvvHAcf3vTOXV/jt2gM7fgfW15+byV0XTBVLcCqCESAFNYBABu/qmrci6aaPDNk8awSCkzFOSyPmkyFCSD5yJPG1LypOxougApQCZvJBa2D4uKNk2o/N68WM8g+icATEEt9f821ETu17w1y33+5wXL8eynr6zZhGguwL9Q//7Ua6bHi3IZF/7NY5jU5icDlU2DMxluDvAZ0d6ICy9yc9rdPZoumPoUA2qHfwAY1MSFhx1uzkg2i0tAL2moJHQNI2xL5lqWcDCglwBka4RFnEpYVNT7z3CSkZDttEe7bQXc47GbxNgKag1FOw3AO7WfUQDfB0CMsctbZJugARIRybb61hj69CbDGJjI6bmNme4Uz8tlVwe7GeHJTqdQbTRVrOq63617LmrOhZ+cQY/EpSsWqgqvjatF3HYuIiEpoHsu2aLi2HeYw+0fSReqxr6qo3Crpwls/utHAJj7xMSnEWqvqeW5vALVS3kLY+wSxtg/A2iZBBLRNUS0j4gOEtFtrfrc2Y7Trm/j1YtvFuTiMtM8lLWewk34sqvT1XbEJixKRiRIAcJUXkY4GNDF0s16SWMh3qLOaNWqozEsyhd5BbP6u4SDAcPeIlkfA+MEF8+Dw2lsWGTev2W39+q4oWbJznNpx7DoJgAnADxORF8nom1Qcy6eQ0RBAP8C4FoAGwG8k4g2tuKzZztOJ6WduPD8S3CGZ6GXq0VxS89aI7JSxkS2eg4SEelJ3XgkiFvfqDbgPnd5t2t28bzOB96otogIBayeS+UEzpYsnouhd249YdFpizr0Zlo3nLfU9FxHVF1NM/axGTKEtcacix4WtXCWlZFaPXR/zBi7GcAZAB4H8HEAC4noq0R0tcd2XQjgIGPskFZf8z0AN3j8mXMCpxoR42Y3/sXkyUjriTIdTgVqbsBXUnKl6t9jPKPO8OnrqM6b8ZM/EZbwhvV9OPJ317maX1u/sAM//aNL8OdvPhNAdb2U8bhzIechXkQKGCp0netcjLz34tVY2hXF1RsXmx5PRiXIWsKYY6xoJsP1f7r8ldfUk9DNMMbuZYz9DwDLAbwA4JMe27UMgLH78oD2mA4R3UpEO4hox8jIiMfmzB6cakSMngtvzcBrRmaac8nZTAx0C/2EsLnaTulNwatThTyp2+jeoXrYtKxLT64aw88AWRK6XFxCFc/FWKE7necCAG/bsgK//dS2qo2WHdr9d/zbU/jVfvV7f9JQbZ0yrAbGw+0bFlXBGJtgjN3JGNvmlUEzsOVOxtgWxtiW/v5+v81pe3iS8Z0XrsAHtLCBd+efcULXw7CoVkI3r6/CVIsLT+o2undophhbd/QlI7aei75aJKljWMtlhlxJ0XMxjcBzPy8OnMLv3fUMhqfyGJoqIBQkfOraM/DW8yvX4LDWfCvj02pRuxZ9DAJYYbi/XHtMMA1v3NCn3zb2eOUn5nu2rtbHgfAKUKfZw3Ywxqp237pJrYQuX+K1C8nWaFMXmtntPROMSfANi5I4MZkHYww5beA9YMy5qNW8fDdzPZ6LE9bVo2MTOQxN5bGiJ44PXrquaqpAIiLpI25bTbuKy7MANmiNqsJQi/ZmXYMqP/j6723Bey9eDcA8bc94NY2GK0Va1tdNR6UHrDdfHZ7QtRUXPZdR/dkf33YarjhjId6zdZUndlkxhkUXrOxBqiBjOFXA3z/0Cn743IBmp7ZapHkuVo+mEax7o3JFBUNTeSzstM8vJbRpk37QGh9yhjDGZCL6KICHAQQB3MUY2+OzWbOCaCiIVVqDJrX/qvq4ftUPB/XQgTssTrts7bDmE9yGLyXbhUX8d7ALyWLhIO76/dd5YpMdxrDofG3P0oGhtGlZOG7IuaRKsivHLmkRl2xRxolTebxutf2+qbg2J9sP2lJcAIAx9l8A/stvO2YjPGQxikbOsIJhrVGZiecykVXzNFb33C2ISDshanguPs6G4hjDoo1L1WXjg8Mp0wZB42rRmMlzaSLnEjEX4I2mixiczOGdC1fYvj4REZ6LwEV4yFIoVYdFsVAQUlAdVM6rRgsOu2zt2H18CkDlhPKCRFiq6bnUs5TrNcYWBv3JCDqjEh7eM2RareIFbSGtiC5jqdxtBGtYtGtgEgCwQZtgaSURCYqci8A9eFLP6JHkSorW+1X9kxtP0JmERS8NTCIsBfRxrF4QDwdr51zawXMxrLAREd578Ro8dWgMj+4dNj0OaDkXpWzyHhvFujTNewif7vD3iIdbN+LXihCXOQi/YlrDIuNJabw9k7Bo18ApbFzS6WnzoXjEQVxq5FxajXWKxCeuOg3LutWh8x0RCZ/Ses0AmudiCIsa7YYHoGqn+CsnU4iGAo6N0BMOQt0KhLjMQbjnYmwqlCua+4iYPZf6xeXVkTTOXOKd1wKozaud6lyIag8UaxV2+7FWLFDF5ZpNi/HBS9fpj3PPpZ6xIvXwtXefj8f/9DLde1rdm3CsVUpE7I9lK/D/ryRwHb6/JFOQ8fi+YTDGkC2Zy86jocbConyp7HmhmqPnonlfbrZSaBS+FG1ckuczmhZYWkKEg+pSdD1jRerhmk1LsKYvof89e5POXeYSEakl88PtEAndOQi/sn/4nueRKyl44CMXVzUpMvZEmUlCtyiXbZs4uUk8HMSxcfuEbjvkW4BKWGQMcfheJquNFc/FHXHhxMNBpPKyvmnT6TW5kgKlzGZcid0swnOZg3CvhOcoJnMlrey88qX+0jvOw31/+Aa86/Ur6w6LGGMotqDZc1RrsM0Yw6sjaZS1gpych9sOGiVuWB1y6vzGK3TdXu3iHmR3jf4wlYrn1odGQlzmINacRDovV22Y601GcMGqHq1nbX1uM9/Z63XOg4/P+PSPd2Pb55/A9sPjALSpA22wDA1Uci6bV1SK17ZoxXTnrug2vbYrFoJSZhiayiMYINdarXKh7anhufjZjU6ERXMQ6/6SdKGEXFFBv00Lgoik9hphjE2by+B1MU4NqdwiFgriVK6Ee7cfBQB9ALx1xctPlvfE8d0PbMXmld36Y69f24vf3nYFlmqrRpwV2uzsfSdTiLuYM+IeHd+0aUdl3IyMRa58av0IcZmDWD2LVF7GVK5k6qamvzYUBGOqVxKWan/peR9Yr5ucR0OV/icAUFS0cShtlHMBgIvW9VY9ZhUWAPoy8b6hlKueFxf72jkX/xpGibBoDmKdhjiVK2EkXbDd3GZXE+ME/zKHa8yIdgPrDGqecM6VyvrYkNkE91wmsyXXkrmA2m4UqDTKssPPhlFCXOYgxrAoGZFwbCKHksKw0KaDW0Vcpk/q8vEVXodF1qQtty1fVBDzaDe2l3TFQ3qDq2Z6uVjhx6WW51LJuQhxEbiAcckxGZHw6kgaALCwI1r1Wi5E7/7GdlNfVjsqnovHYZHl6s570bRbWDQTeGjkpudS1MWlnpyLCIsELpOMSjg0kgEA27CopM3QfuVkCgeG0zXfq9iqnIvDrm3rcvpsYl2/2sXfzZU2flxqrRZVci7CcxG4RCwUxLtev1Kbc6N+sezCok1Lu/TbTx8aq/mepVZ5LiF7zyVfVKpWwmYLbzpLbbT90sAp197zijMWAkDNGVL6eBFtKfr+FwZwzu0P47WxjN6J0CuEuMxR9v71NbjjrWeb+q7YhUXnrujG4b99M5Z2RacVF91zabG48KXydFGuajkwW9h2piYENUKYmfKlm8/Dr//s8pqVt/pgNO0C8+n7d2MqL+PSf/glttzxqGu22CHEZY7DT8aOqOQYUhARNi7twqvDmZrvVUnoevu1seZVCrKCTFEBY941qfKaaCiI+z/8Bnz3A1tdfU+n3dCcUDCAsBTQV4uKhsQ9Y9WrhMfGs3jvt57RW6A2gxCXOQ4/GZfZ1F8Y6YhK+jAvJ1qW0DWsCAUDhHyprE8ZtKvVmS1sXtkzrRh4QSIc1OtcZEsz9ueOTJjuP7znJB7fN4LP/vTlpj9XiMsch3+ZLtficyfihi+gEy1L6Bo8l554CAW5rM9HtvaQFUyP2urS/sLxgtZsisMXDB/eM6Tn2BpFiMscZySlurfXblpc83VO3d+M+OG5dMfDKJQUfdhbxywNi/wkEZaQKci468nDVc9Zu9SNaVst3r5ledP7kcRfao5z+/Vn4eE9J3H2sq6ar4uHpWm35uurRR57LnxFSAoQEhEJebmsnwTCc5k58UgQh0czeHjPUNVzOYuAjKULWNwZxV/esKnpzxWeyxxnXX8SH75s/bSb5XixVa7kfLXSE7oeey488RwLBdWNlUbPRYjLjEmEJQyn7BO0VeKSKZomGDSDEBcBgPqKrYraZsJW5Vxi4aDWfqGS0J2tq0V+kogEMZlVc1ZvWNeLs5Z2gghY3hOrupiMZYo1O9vNBCEuAgAVz6VWnN3qCt1YWPVc8iUFqQLPucze1SK/MHbL+/Bl67G4M4reRBjJiFQtLukCel3yXMRlQAAAiIV4JWcNz6VFRXRSMAApQIiFVM+laPBcjHOBBPVh7JYXCwdx3TlLcPriDjx9aKwqLBrPFPV2nc0ixEUAoD7PpVXl/4CabzF5Lnm1XYHksdc0FzF6LolIEDedvxwA8K5vPG3yXHJFBdmiInIuAnfhOZdac4WLchkBQksaPUdCQcQ1cSloq0Ui39IYxkFq8ZBhvEwoaPJcxrVRvUJcBK6irxbVyrko3nf+50RDAT0sKshlpAqyWIZuEGObh5jptlTluVhf3wy+iAsRvY2I9hBRmYi2WJ77FBEdJKJ9RPQmP+ybj8RD5t2zdhRl7zv/c9b2J7G2P6mHRem8LAroGsTouRhzVrFQwHQx4fuM3Np57tdfazeAmwD8m/FBItoI4GYAZwFYCuBRIjqNMebPVKd5RFzPudRaii63bNrhv7/vQgDAPz16AHKZYTRdcM1dn28YxcXYQjQWCpo8F56wt7ZJbRRfPBfG2F7G2D6bp24A8D3GWIExdhjAQQAXtta6+UlCz7nY6/hvDo7i3u1HPV+GtsK3AuwfSmFVb+s3/c0FEoaixIAhX2YNi3jzqYhLf+N2y7ksA3DMcH9Ae6wKIrqViHYQ0Y6RkZGWGDeXiYYCIAJyDp7LLXc9AwB6vUmr4J5SSWFY05ds6WfPFXiy3rqMH9OW+RVtc2thtnguRPQoEe22+bnBjfdnjN3JGNvCGNvS39/vxlvOa4gI8VDQlHO56gtP4KP3Pg+g0sWOl+G3ih5DKLS2L9HSz54rcFGx9vOJhdXTn3svfJqAWzkXz8SFMXYlY2yTzc8DNf7bIIAVhvvLtccELSAekfSlaMYYDgyn8dNdJwAAK30KSS5Z36ffXiPEpSF4zsW4DA1UJhHc+C+/QbYoVzwXl/Jq7RYWPQjgZiKKENEaABsAPOOzTfOGFT0xfVKA00a3VmOsFl3eU7vhlcAenk+L24RFAHBwOI0Xj52qJHTb3XOpBRG9lYgGAFwE4GdE9DAAMMb2APhPAC8DeAjAR8RKUes4d0U3nj0ygZvvfKqqny5vefCld5zXcru+d+tW/MV1Z4rq3AbhomKtXzG2E91z/JTuubhVy+TLUjRj7H4A9zs8dweAO1prkQAAztMGqD99aBwEdVWBf9FSeRk3nLcUN262za97yta1vdi6tnp0qqA+4nyXeVVYVBGRPcencM5ytefPXA2LBD5y7vJu/faB4RQA6JMC03lRfj9bkYIBREOBqtWiYKBy+r80eGr2rBYJZh+reuP42LYNAIDRtLrPhG9kFOX3s5vuWBjdlvlGxi1ix8azrrfUEOIi0CEivP+Na0yPZYsK8iUFRbmMzlnceX++8/Xf24KPXL7e9Ngl6/vwtXdfgE9ceRoKchmnciVIAXIttyUuRQITCZtB6bzJtwiLZi9nL6/uoUxEuGbTYn1G0XCq4OrGVOG5CEwEA1S1qjCcygMQ4jJX4YPsh6byru4dE+IiqIKLCL+KDU+pVzbRHHtu0h1Tq6BHUgVXZ3ELcRFUwcVlSZc6W3poSvNchLjMSbjnMjyVd22lCBDiIrCBi8iiTk1ctJyLaI49N+nSVpEyRUWERQJv4Z7LYk1ceFgkmmPPTbjnArjbH1mIi6AKvtFtsRYW8dWEhEjozkmSEUnviyxyLgJP4e0keVg0rs0PNg6IF8wdiEgvsBNhkcBTeM6Fh0VjmucSE+IyZ+kS4iJoBVVhUaYIKUAt6/wvaD087yLCIoGnJPWwSO2lUpTLwmuZ45y2qAMAEBKei8BLXrd6AS5e34tFnVG9QXbUpVk2gvZk88puAMDxyZxr7ynERVDFhWsW4J4/2IpQMICkVtsiPJe5zfkrewAALx+fcu09hbgIasJL/t2awidoT9b1q5MVrj17sWvvKQoXBDXh+RexDD23CQQIu26/2lUPVYiLoCZcXERYNPdxu1+PCIsENUmKsEjQIEJcBDXh1bpitUgwU4S4CGrCPRcRFglmihAXQU1EzkXQKEJcBDXhnkvQ2CpeIKgDIS6CmvCBWnK57LMlgtmGEBdBTfiYCaXMfLZEMNsQ4iKoiaSFQ0JcBDPFr0H0/0BErxDRLiK6n4i6Dc99iogOEtE+InqTH/YJKgR1cfHZEMGswy/P5REAmxhj5wDYD+BTAEBEGwHcDOAsANcA+FciEssUPsLL/sOSSOgKZoYv4sIY+wVjTNbuPg1guXb7BgDfY4wVGGOHARwEcKEfNgpUrtm0GB+8dC0+ec0ZfpsimGW0Q87lfQB+rt1eBuCY4bkB7TGBT4SCAXzq2jPRHQ/7bYpgluHZxkUiehSA3f7tTzPGHtBe82kAMoB7Gnj/WwHcCgArV65swlKBQOAFnokLY+zKWs8T0e8DeAuAbYwxvhQxCGCF4WXLtcfs3v9OAHcCwJYtW8RShkDQZvi1WnQNgD8DcD1jLGt46kEANxNRhIjWANgA4Bk/bBQIBM3hVz+XrwCIAHiEiADgacbYhxhje4joPwG8DDVc+ghjTPHJRoFA0AS+iAtjbH2N5+4AcEcLzREIBB7QDqtFAoFgDiLERSAQeIIQF4FA4AlUWQWevRDRCIDX6nhpH4BRj81pFmGjO7S7je1uH1CfjasYY/12T8wJcakXItrBGNvitx21EDa6Q7vb2O72Ac3bKMIigUDgCUJcBAKBJ8w3cbnTbwPqQNjoDu1uY7vbBzRp47zKuQgEgtYx3zwXgUDQIoS4CAQCT5g34kJE12h9eQ8S0W1+28MhoiNE9BIR7SSiHdpjC4joESI6oP3b02Kb7iKiYSLabXjM1iZS+bJ2XHcR0fk+2Xc7EQ1qx3EnEb3Z8FzL+zIT0QoiepyIXiaiPUT0Me3xtjiONexz7zgyxub8D4AggFcBrAUQBvAigI1+26XZdgRAn+WxzwG4Tbt9G4C/b7FNvwPgfAC7p7MJwJuhdhIkAFsBbPfJvtsB/KnNazdqf+8IgDXa9yDYAhuXADhfu90BtVf0xnY5jjXsc+04zhfP5UIABxljhxhjRQDfg9qvt125AcDd2u27AdzYyg9njP0KwHidNt0A4N+ZytMAuoloiQ/2OeFLX2bG2AnG2PPa7RSAvVBbtrbFcaxhnxMzPo7zRVzauTcvA/ALInpOa90JAIsYYye02ycBLPLHNBNONrXTsf2oFlLcZQglfbePiFYD2AxgO9rwOFrsA1w6jvNFXNqZSxhj5wO4FsBHiOh3jE8y1Sdtq3qBdrQJwFcBrANwHoATAD7vqzUaRJQEcB+AjzPGpozPtcNxtLHPteM4X8Sl7t68rYYxNqj9Owzgfqiu5hB3ibV/h/2zUMfJprY4toyxIcaYwhgrA/g6Ki67b/YRUQjqiXsPY+xH2sNtcxzt7HPzOM4XcXkWwAYiWkNEYaiD1x702SYQUYKIOvhtAFcD2A3Vtlu0l90C4AF/LDThZNODAH5PW+3YCuCUwe1vGZb8xFuhHkduX8v7MpPav/WbAPYyxr5geKotjqOTfa4eR6+z5u3yAzUbvx9qlvvTftuj2bQWagb+RQB7uF0AegE8BuAAgEcBLGixXd+F6hKXoMbW73eyCerqxr9ox/UlAFt8su872ufv0k6EJYbXf1qzbx+Aa1t0DC+BGvLsArBT+3lzuxzHGva5dhxF+b9AIPCE+RIWCQSCFiPERSAQeIIQF4FA4AlCXAQCgScIcREIBJ4gxEXgOkTUa9hVe9KwyzZNRP/qt32C1iCWogWeQkS3A0gzxv7Rb1sErUV4LoKWQUSXEdFPtdu3E9HdRPRrInqNiG4ios+R2tvmIa00HUR0ARE9oW3sfNjrHdcC9xDiIvCTdQCuAHA9gP8A8Dhj7GwAOQDXaQLzzwB+lzF2AYC7ANzhl7GCmSH5bYBgXvNzxliJiF6C2tDrIe3xlwCsBnA6gE0AHlG3wiAItexfMAsQ4iLwkwIAMMbKRFRilQRgGep3kwDsYYxd5JeBgsYRYZGgndkHoJ+ILgLUFgFEdJbPNgnqRIiLoG1hakvS3wXw90T0ItSdu2/w1ShB3YilaIFA4AnCcxEIBJ4gxEUgEHiCEBeBQOAJQlwEAoEnCHERCASeIMRFIBB4ghAXgUDgCf8fyE5PobgvElUAAAAASUVORK5CYII=;" vertex="1" parent="1">
          <mxGeometry x="-14" y="373" width="279" height="262" as="geometry" />
        </mxCell>
        <mxCell id="tYz2P0I3mBLXz6eOGaiO-4" value="" style="shape=image;verticalLabelPosition=bottom;labelBackgroundColor=#ffffff;verticalAlign=top;aspect=fixed;imageAspect=0;image=data:image/png,iVBORw0KGgoAAAANSUhEUgAAARUAAAD4CAYAAADCQ3IKAAAAOXRFWHRTb2Z0d2FyZQBNYXRwbG90bGliIHZlcnNpb24zLjMuNCwgaHR0cHM6Ly9tYXRwbG90bGliLm9yZy8QVMy6AAAACXBIWXMAAAsTAAALEwEAmpwYAAARH0lEQVR4nO3de7BV5X3G8e8jeKOpQQQpBZtDImpJopEeCRlr66Wp14ptrcVqtJbGJqGpVqcKJqPpH85oL6K2jROiVkyNipcYqqYtEmKmMxUC3gEN1CsIgk3wkmRA9Nc/1nt0i+fAOpx37bX28fnMnDlrvWvtvX86Zx7Wbb8/RQRmZrnsUncBZja4OFTMLCuHipll5VAxs6wcKmaW1dC6CxiIkSNHRldXV91lmH3gLFu27JWIGNXbto4Ola6uLpYuXVp3GWYfOJKe72ubT3/MLCuHipll5VAxs6wcKmaWlUPFzLJyqJhZVg4VM8vKoWJmWTlUzCyrjn6itqyumfft1Oueu+LEzJWYDX4+UjGzrBwqZpaVQ8XMsnKomFlWDhUzy8qhYmZZOVTMLKvKQkXSjZI2SHpym/EvS3pK0nJJf9cyPkvSaklPSzq2qrrMrFpVPvx2E/DPwM09A5KOAqYCh0TEZkn7pvGJwDTg48CvAg9IOiAi3qqwPjOrQGVHKhHxQ+An2wx/EbgiIjanfTak8anAbRGxOSKeBVYDk6uqzcyq0+5rKgcAR0haLOlBSYel8bHAiy37rUlj7yPpXElLJS3duHFjxeWaWX+1O1SGAiOAKcDfAPMkqT9vEBFzIqI7IrpHjeq1Q4CZ1ajdobIGuDsKS4C3gZHAWmC/lv3GpTEz6zDtDpV7gKMAJB0A7Aa8AswHpknaXdJ4YAKwpM21mVkGld39kXQrcCQwUtIa4DLgRuDGdJt5C3B2RASwXNI8YAWwFZjhOz9mnamyUImI0/vYdGYf+18OXF5VPWbWHn6i1syycqiYWVYOFTPLyqFiZlk5VMwsK4eKmWXlUDGzrBwqZpaVQ8XMsnKomFlWDhUzy8qhYmZZOVTMLCuHipll5VAxs6za3vcnbbtQUkgamdYl6drU9+dxSZOqqsvMqlXlkcpNwHHbDkraD/hd4IWW4eMpppCcAJwLXFdhXWZWoXb3/QGYDVwERMvYVODmNCH2Q8BwSWOqqs3MqtPWayqSpgJrI+KxbTa574/ZING2UJE0DLgEuHQg7+O+P2bNVmUv5W19DBgPPJb6h40DHpY0Gff9MRs02nakEhFPRMS+EdEVEV0UpziTImI9Rd+fs9JdoCnAqxGxrl21mVk+Vd5SvhX4H+BASWskTd/O7vcDz1A0Zv8m8KWq6jKzatXR96dne1fLcgAzqqrFzNrHT9SaWVYOFTPLyqFiZlk5VMwsK4eKmWXlUDGzrBwqZpaVQ8XMsnKomFlWDhUzy8qhYmZZOVTMLCuHipll5VAxs6wcKmaWlUPFzLJqazMxSX8v6anUMOw7koa3bJuVmok9LenYquoys2q1u5nYAuATEXEw8GNgFoCkicA04OPpNV+XNKTC2sysIm1tJhYR/xURW9PqQxSz5kPRTOy2iNgcEc9SzFU7uarazKw6dV5T+TPge2nZzcTMBolaQkXSV4CtwC39fa2biZk1WzubiQEg6U+Bk4Bj0iz64GZiZoNGu3spH0fRnP3kiPh5y6b5wDRJu0saD0wAlrSzNjPLo7IjldRM7EhgpKQ1wGUUd3t2Bxak1qcPRcQXImK5pHnACorTohkR8VZVtZlZddrdTOyG7ex/OXB5VfWYWXv4iVozy8qhYmZZOVTMLCuHipll5VAxs6wcKmaWlUPFzLJyqJhZVg4VM8uqVKhI+mTVhZjZ4FD2SOXrkpZI+pKkD1dakZl1tFKhEhFHAGdQTE+wTNK3JX220srMrCOVvqYSEauArwIXA78NXJsmsf6Dqoozs85T9prKwZJmAyuBo4Hfi4hfT8uzK6zPzDpM2akP/gm4HrgkIn7RMxgRL0n6aiWVmVlHKnv6cyLw7Z5AkbSLpGEAEfGt3l7QR9+fEZIWSFqVfu+dxiXp2tT353FJkwb2n2VmdSkbKg8Ae7asD0tj23MT7+/7MxNYGBETgIVpHeB4iikkJwDnAteVrMvMGqZsqOwREW/0rKTlYdt7QW99fyj6+8xNy3OBU1rGb47CQ8BwSWNK1mZmDVI2VH7Wekoi6TeAX2xn/76Mjoh1aXk9MDotu++P2SBR9kLt+cAdkl4CBPwK8McD+eCICEmx4z3f97o5wByA7u7ufr/ezKpVKlQi4keSDgIOTENPR8SbO/F5L0saExHr0unNhjTuvj9mg0R/vlB4GHAwMAk4XdJZO/F584Gz0/LZwHdbxs9Kd4GmAK+2nCaZWQcpdaQi6VvAx4BHgZ5+PAHcvJ3X9Nb35wpgnqTpwPPAaWn3+4ETKBqz/xw4p5//HWbWEGWvqXQDE1valO5QH31/AI7pZd8AZpR9bzNrrrKnP09SXJw1M9uuskcqI4EVkpYAm3sGI+LkSqoys45VNlS+VmURZjZ4lL2l/KCkjwATIuKB9L2fIdWWZmadqOzUB58H7gS+kYbGAvdUVJOZdbCyF2pnAIcDr8E7EzbtW1VRZta5yobK5ojY0rMiaSjFcypmZu9RNlQelHQJsGeam/YO4N+rK8vMOlXZUJkJbASeAP6C4glYz/hmZu9T9u7P28A304+ZWZ/KfvfnWXq5hhIRH81ekZl1tP5896fHHsAfASPyl2Nmna5sM7H/a/lZGxFXU0yGbWb2HmVPf1pnt9+F4sil7FGOmX2AlA2Gf2xZ3go8x7tzoZiZvaPs3Z+jqi7EzAaHsqc/F2xve0Rc1Z8PlfTXwJ9T3FF6gmKmtzHAbcA+wDLgc61P8ZpZZyj78Fs38EWKLxKOBb5AMVftL6ef0iSNBf4K6I6IT1B823kacCUwOyL2B34KTO/P+5pZM5S9pjIOmBQRrwNI+hpwX0ScOYDP3VPSmxRNydZRNHv/k7R9LsUcLu5UaNZhyh6pjAZaT0W28G4jsH6JiLXAPwAvUITJqxSnO5siYmvazc3EzDpU2SOVm4Elkr6T1k/h3fal/ZKask8FxgObKL6cuG3P5T65mZhZs5W9+3O5pO8BR6ShcyLikZ38zN8Bno2IjQCS7qaYq2W4pKHpaMXNxMw6VH+aiQ0DXouIa4A1ksbv5Ge+AEyRNEySKFp2rAAWAaemfVobjZlZByk7neRlwMXArDS0K/BvO/OBEbGYYmrKhyluJ+9CcTpzMXCBpNUUt5Vv2Jn3N7N6lb2m8vvAoRRBQES8JKlft5JbRcRlFB0LWz0DTN7Z9zSzZih7+rMldREMAEm/VF1JZtbJyobKPEnfoLiY+nngATxhk5n1YoenP+li6u3AQRSz6R8IXBoRCyquzcw60A5DJSJC0v0R8UnAQWJm21X29OdhSYdVWomZDQpl7/58GjhT0nPAzwBRHMQcXFVhZtaZthsqkn4tIl4Ajm1TPWbW4XZ0pHIPxbeTn5d0V0T8YRtqMrMOtqNrKmpZdjsOM9uhHYVK9LFsZtarHZ3+HCLpNYojlj3TMrx7oXavSqszs46z3VCJiCHtKsTMBof+TH1gZrZDDhUzy8qhYmZZ1RIqkoZLulPSU5JWSvqMpBGSFkhalX7vXUdtZjYwdR2pXAP8R0QcBBwCrARmAgsjYgKwMK2bWYdpe6hI+jDwW6TpIiNiS0Rsophhv2eG/rkUM/abWYep40hlPLAR+FdJj0i6Ps0kNzoi1qV91tNHXyH3/TFrtjpCZShFy9TrIuJQim89v+dUp3Xqym1FxJyI6I6I7lGjRlVerJn1Tx2hsgZYk2bVh2Jm/UnAy5LGAKTfG2qozcwGqO2hEhHrgRclHZiGevr+zKfo9wPu+2PWscpO0pTbl4FbJO1G0ZrjHIqAmydpOvA8cFpNtZnZANQSKhHxKNDdy6Zj2lyKmWXmJ2rNLCuHipll5VAxs6wcKmaWlUPFzLJyqJhZVg4VM8vKoWJmWTlUzCwrh4qZZeVQMbOsHCpmlpVDxcyycqiYWVYOFTPLyqFiZlnVFiqShqTZ9O9N6+MlLZa0WtLtaVY4M+swdR6pnEfRRKzHlcDsiNgf+CkwvZaqzGxA6mp7Og44Ebg+rQs4mmJmfXAzMbOOVdeRytXARcDbaX0fYFNEbE3ra4Cxvb3QzcTMmq2OtqcnARsiYtnOvN7NxMyarY7Z9A8HTpZ0ArAHsBdFw/bhkoamo5VxwNoaajOzAaqjmdisiBgXEV3ANOD7EXEGsAg4Ne3mZmJmHapJz6lcDFwgaTXFNZYbaq7HzHZCXR0KAYiIHwA/SMvPAJPrrMfMBq5JRypmNgg4VMwsK4eKmWXlUDGzrBwqZpaVQ8XMsnKomFlWDhUzy8qhYmZZOVTMLCuHipll5VAxs6wcKmaWlUPFzLJyqJhZVnXMUbufpEWSVkhaLum8ND5C0gJJq9Lvvdtdm5kNXB1HKluBCyNiIjAFmCFpIjATWBgRE4CFad3MOkwdc9Sui4iH0/LrFA3FxgJTKfr9gPv+mHWsWq+pSOoCDgUWA6MjYl3atB4Y3cdr3PfHrMHq7KX8IeAu4PyIeK11W0QEEL29zn1/zJqtrranu1IEyi0RcXcaflnSmLR9DLChjtrMbGDquPsjivYbKyPiqpZN8yn6/YD7/ph1rLo6FH4OeELSo2nsEuAKYJ6k6cDzwGk11GZmA9T2UImI/wbUx+Zj2lmLmeXnJ2rNLCuHipll5VAxs6wcKmaWlUPFzLJyqJhZVg4VM8vKoWJmWTlUzCwrh4qZZeVQMbOsHCpmlpVDxcyycqiYWVZ1zKfSMbpm3te2z3ruihPb9llmVXKoNMTOBJiDyJqocac/ko6T9LSk1ZLc+8eswzQqVCQNAf4FOB6YCJyeGo2ZWYdo2unPZGB1RDwDIOk2iiZjK2qtyiyTdp7m1nVK3bRQGQu82LK+Bvh06w6SzgXOTatvSHq6xPuOBF7JUmF7lKpXV7ahknIG5f/fptCV7au3H39TH+lrQ9NCZYciYg4wpz+vkbQ0IrorKik711st11utRl1TAdYC+7Wsj0tjZtYhmhYqPwImSBovaTdgGkWTMTPrEI06/YmIrZL+EvhPYAhwY0Qsz/DW/TpdagDXWy3XWyEVvdDNzPJo2umPmXU4h4qZZTXoQ6Xpj/1LulHSBklPtoyNkLRA0qr0e+86a2wlaT9JiyStkLRc0nlpvJE1S9pD0hJJj6V6/zaNj5e0OP1d3J5uDDSGpCGSHpF0b1pvdL2tBnWodMhj/zcBx20zNhNYGBETgIVpvSm2AhdGxERgCjAj/T9tas2bgaMj4hDgU8BxkqYAVwKzI2J/4KfA9PpK7NV5wMqW9abX+45BHSq0PPYfEVuAnsf+GyMifgj8ZJvhqcDctDwXOKWdNW1PRKyLiIfT8usUf/hjaWjNUXgjre6afgI4GrgzjTemXgBJ44ATgevTumhwvdsa7KHS22P/Y2uqpT9GR8S6tLweGF1nMX2R1AUcCiymwTWnU4lHgQ3AAuB/gU0RsTXt0rS/i6uBi4C30/o+NLve9xjsodLxorjn37j7/pI+BNwFnB8Rr7Vua1rNEfFWRHyK4gntycBB9VbUN0knARsiYlndteysRj38VoFOfez/ZUljImKdpDEU/8I2hqRdKQLlloi4Ow03umaAiNgkaRHwGWC4pKHpX/8m/V0cDpws6QRgD2Av4BqaW+/7DPYjlU597H8+cHZaPhv4bo21vEc6v78BWBkRV7VsamTNkkZJGp6W9wQ+S3EdaBFwatqtMfVGxKyIGBcRXRR/r9+PiDNoaL29iohB/QOcAPyY4jz6K3XX00t9twLrgDcpzpWnU5xDLwRWAQ8AI+qus6Xe36Q4tXkceDT9nNDUmoGDgUdSvU8Cl6bxjwJLgNXAHcDuddfaS+1HAvd2Sr09P35M38yyGuynP2bWZg4VM8vKoWJmWTlUzCwrh4qZZeVQMbOsHCpmltX/A5X/2r5sQhrrAAAAAElFTkSuQmCC;" vertex="1" parent="1">
          <mxGeometry x="299" y="380" width="277" height="248" as="geometry" />
        </mxCell>
        <mxCell id="tYz2P0I3mBLXz6eOGaiO-5" value="" style="shape=image;verticalLabelPosition=bottom;labelBackgroundColor=#ffffff;verticalAlign=top;aspect=fixed;imageAspect=0;image=data:image/png,iVBORw0KGgoAAAANSUhEUgAAAQ8AAAD4CAYAAADyz2MrAAAAOXRFWHRTb2Z0d2FyZQBNYXRwbG90bGliIHZlcnNpb24zLjMuNCwgaHR0cHM6Ly9tYXRwbG90bGliLm9yZy8QVMy6AAAACXBIWXMAAAsTAAALEwEAmpwYAAAP8ElEQVR4nO3de7AkZX3G8e/DTcAYkeKIFLAu3lCMusEFTUUTBC8IUSSJJlZMMLGyajSliZW4gKUkFauWqCExZYzrFbzjBTGCUSBeyqoILrggFwkIS+QirIkWYqwlwC9/TG84rOecnfPu9MycPd9P1dTpfmd6+le9s0/1vP1Ov6kqJGmxdpl0AZKWJsNDUhPDQ1ITw0NSE8NDUpPdJl3AMPbbb79auXLlpMuQlp1LL730h1U1M9dzSyI8Vq5cyYYNGyZdhrTsJLlpvuf82iKpieEhqYnhIamJ4SGpieEhqYnhIalJb+GRZM8klyS5PMlVSf6qa/9QkhuTbOweq/qqQVJ/+hznsQU4uqruSrI78I0kX+ye+4uq+nSP+5bUs97CowY3CrmrW929e3jzEGkn0esI0yS7ApcCjwHeVVUXJ3k18NYkbwYuAtZW1ZY5tl0DrAFYsWJFn2XutFauPW9s+9q07vix7UvTodcO06q6t6pWAQcBRyb5JeBk4PHAEcC+wBvn2XZ9Va2uqtUzM3MOrZc0QWO52lJVPwa+AhxbVbfVwBbgg8CR46hB0mj1ebVlJsk+3fJewHOA7yY5oGsL8CLgyr5qkNSfPvs8DgDO7Po9dgHOrqovJPm3JDNAgI3Aq3qsQVJP+rzacgXwy3O0H93XPiWNjyNMJTUxPCQ1MTwkNTE8JDUxPCQ1MTwkNTE8JDUxPCQ1MTwkNTE8JDUxPCQ1MTwkNTE8JDUxPCQ1MTwkNTE8JDUxPCQ1MTwkNTE8JDUxPCQ1mcRE14ckuTjJ9Uk+mWSPvmqQ1J8+zzy2TnT9FGAVcGySpwOnA2dU1WOAHwGv6LEGST3pLTy6WeHmmuj6aODTXfuZDCZ+krTE9NrnkWTXJBuBO4ALgO8BP66qe7qX3AwcOM+2a5JsSLJh8+bNfZYpqcFYJ7pmMMH1sNs60bU0xcY90fWvAPsk2TpT3UHALeOoQdJojXui62sYhMhvdy87CTi3rxok9WcSE11fDXwiyd8A3wbe32MNknoyiYmub2DQ/yFpCXOEqaQmhoekJoaHpCaGh6QmhoekJoaHpCaGh6QmhoekJoaHpCaGh6QmhoekJoaHpCaGh6QmhoekJoaHpCaGh6QmhoekJoaHpCaGh6QmhoekJoaHpCZ9zttycJKvJLk6yVVJXte1n5bkliQbu8dxfdUgqT99zttyD/CGqrosyUOAS5Nc0D13RlW9vcd9S+pZn/O23Abc1i3/JMk1zDOptaSlZyx9HklWMpgA6uKu6bVJrkjygSQPm2ebNUk2JNmwefPmcZQpaRF6D48kvwB8Bnh9Vd0JvBt4NLCKwZnJO+barqrWV9Xqqlo9MzPTd5mSFqnX8EiyO4Pg+GhVfRagqm6vqnur6j7gvTj1pLQk9Xm1JQwmsb6mqv5uVvsBs152InBlXzVI6k+fV1t+Ffh94DtJNnZtpwAvTbIKKGAT8Moea5DUkz6vtnwDyBxPnd/XPiWNjyNMJTUxPCQ1MTwkNTE8JDUxPCQ1MTwkNelznIeWkZVrz1v0NpvWHd9DJRoXzzwkNTE8JDUxPCQ1GSo8kjyp70IkLS3Dnnn8U5JLkvxJkof2WpGkJWGo8KiqZwK/BxzM4F6kH0vynF4rkzTVhu7zqKrrgDcBbwR+HXhnku8m+c2+ipM0vYbt83hykjOAa4CjgRdU1RO65TN6rE/SlBp2kNg/Au8DTqmqn21trKpbk7ypl8okTbVhw+N44GdVdS9Akl2APavqf6rqw71VJ2lqDdvncSGw16z1vbs2ScvUsOGxZ1XdtXWlW967n5IkLQXDhsdPkxy+dSXJU4GfLfB6STu5Yfs8Xg98KsmtDG5q/AjgdxbaIMnBwFnA/gzulL6+qv4hyb7AJ4GVDO6e/pKq+lFL8ZImZ6jwqKpvJXk8cGjXdG1V/e92NptvouuXAxdV1boka4G1DMaOSFpCFnM/jyMYnC3sBhyehKo6a74XLzDR9QnAUd3LzgS+iuEhLTlDhUeSDzOYX3YjcG/XXAy+lgyz/Urun+h6/y5YAH7A4GvNXNusAdYArFixYpjdSBqjYc88VgOHVVUtdgfbTnQ9mIVyoKoqyZzvWVXrgfUAq1evXvR+JfVr2KstVzLoJF2UuSa6Bm7fOl9t9/eOxb6vpMkb9sxjP+DqJJcAW7Y2VtUL59tgvomugc8DJwHrur/nLrZoSZM3bHic1vDe8010vQ44O8krgJuAlzS8t6QJG/ZS7deSPBJ4bFVdmGRvYNftbDPfRNcAxyyuTEnTZtif5P8x8GngPV3TgcDneqpJ0hIwbIfpaxh8DbkT/v/GQA/vqyhJ02/Y8NhSVXdvXUmyG4NxHpKWqWHD42tJTgH26u5d+ingX/orS9K0GzY81gKbge8ArwTOZ3A/U0nL1LBXW+4D3ts9JGno37bcyBx9HFX1qJFXJGlJWMxvW7baE3gxsO/oy5G0VAw76dN/zXrcUlV/z+CmyJKWqWG/thw+a3UXBmcii7kXiKSdzLAB8I5Zy/fQ3T5w5NVIWjKGvdryrL4LkbS0DPu15c8Xen6bn9xLQ1m59rym7Tats7ttGizmassRDO7FAfAC4BLguj6KkjT9hg2Pg4DDq+onAElOA86rqpf1VZik6Tbs8PT9gbtnrd/NPDculrQ8DHvmcRZwSZJzuvUXMZg2QdIyNezVlrcm+SLwzK7pD6vq2/2VJWnaLWag197AnVX1wSQzSQ6pqhv7Kkz3a70qIfVp2NsQvoXBrG4nd027Ax/pqyhJ02/YDtMTgRcCPwWoqluBh/RVlKTpN2x43N3NFlcASR68vQ2SfCDJHUmunNV2WpJbkmzsHse1lS1p0oYNj7OTvAfYp7uT+oVs/8ZAHwKOnaP9jKpa1T3OH75USdNkux2m3cxvnwQez+Du6YcCb66qCxbarqq+3k1wLWkntN3w6CajPr+qngQsGBhDem2SPwA2AG+oqh/N9aIka4A1ACtWrBjBbiWN0rBfWy5LcsQI9vdu4NHAKuA2HvhT/weoqvVVtbqqVs/MzIxg15JGadhxHk8DXpZkE4MrLmFwUvLkxeysqm7fupzkvcAXFrO9pOmxYHgkWVFV/wk8bxQ7S3JAVd3WrZ4IXLnQ6yVNr+2deXyOwa9pb0rymar6rWHfOMnHgaOA/ZLcDLwFOCrJKgaXfDcxmANG0hK0vfCYPcv9oqZZqKqXztH8/sW8h6Tptb0O05pnWdIyt70zj6ckuZPBGche3TLc32H6i71WJ2lqLRgeVbXruAqRtLQMO85Dkh7A8JDUxPCQ1MTwkNTE8JDUxPCQ1MTwkNTE8JDUxPCQ1MTwkNTE8JDUxPCQ1MTwkNTE8JDUxPCQ1GTYu6drRJzxXjsLzzwkNektPOaZ6HrfJBckua77+7C+9i+pX32eeXyIn5/oei1wUVU9FrioW5e0BPUWHlX1deC/t2k+ATizWz4TeFFf+5fUr3H3eew/a8a4HwD7j3n/kkZkYh2mVVUsMBdMkjVJNiTZsHnz5jFWJmkY4w6P25McAIN5a4E75nthVa2vqtVVtXpmZmZsBUoazrjD4/PASd3yScC5Y96/pBHp81Ltx4F/Bw5NcnOSVwDrgOckuQ54drcuaQnqbYTpPBNdAxzT1z4ljY8jTCU18bctWnJafh+0ad3xU7+vpcYzD0lNDA9JTQwPSU0MD0lN7DDVsuBNmEbPMw9JTQwPSU0MD0lNDA9JTQwPSU282iKNWOuVnaU2rN0zD0lNDA9JTQwPSU0MD0lNDA9JTQwPSU0MD0lNDA9JTSYySCzJJuAnwL3APVW1ehJ1SGo3yRGmz6qqH05w/5J2gF9bJDWZ1JlHAV9OUsB7qmr9ti9IsgZYA7BixYoxl7d93plKy92kzjyeUVWHA88HXpPk17Z9gRNdS9NtIuFRVbd0f+8AzgGOnEQdktqNPTySPDjJQ7YuA88Frhx3HZJ2zCT6PPYHzkmydf8fq6p/nUAdknbA2MOjqm4AnjLu/UoaLS/VSmpieEhqYnhIamJ4SGpieEhqYnhIauK8LdKUaPm91CTnevHMQ1ITw0NSE8NDUhPDQ1ITw0NSE6+2SEtY6x3tRnGVxjMPSU0MD0lNDA9JTQwPSU0MD0lNdqqrLc6lIo2PZx6SmhgekppMJDySHJvk2iTXJ1k7iRok7ZhJTPq0K/AuBlNNHga8NMlh465D0o6ZxJnHkcD1VXVDVd0NfAI4YQJ1SNoBk7jaciDw/VnrNwNP2/ZFSdYAa7rVu5JcO+I69gN+OOL3HJVprc26Fm8qa8vpQ9f1yPmemNpLtVW1Hljf1/sn2VBVq/t6/x0xrbVZ1+JNa22jqGsSX1tuAQ6etX5Q1yZpCZlEeHwLeGySQ5LsAfwu8PkJ1CFpB0xiout7krwW+BKwK/CBqrpq3HXQ41eiEZjW2qxr8aa1th2uK1U1ikIkLTOOMJXUxPCQ1GRZhEeSFye5Ksl9SVZv89zJ3TD5a5M8b1b7WIfQJ1mV5JtJNibZkOTIrj1J3tnVcUWSw/uuZZ76/jTJd7vj+Lez2uc8fmOu7Q1JKsl+3fpEj1mSt3XH6ook5yTZZ9Zz03C8RvPZrqqd/gE8ATgU+Cqwelb7YcDlwIOAQ4DvMejE3bVbfhSwR/eaw3qu8cvA87vl44Cvzlr+IhDg6cDFEzh+zwIuBB7UrT98oeM35toOZtD5fhOw3zQcM+C5wG7d8unA6VN0vEb22V4WZx5VdU1VzTVC9QTgE1W1papuBK5nMHx+EkPoC/jFbvmhwK2zajyrBr4J7JPkgJ5r2dargXVVtQWgqu6YVdtcx2+czgD+ksHx22qix6yqvlxV93Sr32QwlmlrXZM+XiP7bC+L8FjAXEPlD1ygvU+vB96W5PvA24GTt1PjOD0OeGaSi5N8LckR01BbkhOAW6rq8m2emoZjttUfMTgLgumoa2Q1TO3w9MVKciHwiDmeOrWqzh13PXNZqEbgGODPquozSV4CvB949pTUthuwL4OvAEcAZyd51BTUdQqDrwhjN8znLcmpwD3AR8dZ27jsNOFRVS3/0RYaKj/yIfQL1ZjkLOB13eqngPcNUePIbKe2VwOfrcGX5kuS3MfgB1+91zZfXUmexKDf4PIkW/d9WdfRPLG6ZtX3cuA3gGO648Y46hrC6GoYZ2fNpB/8fIfpE3lgB9YNDDqUduuWD+H+TqUn9lzbNcBR3fIxwKXd8vE8sPPvkgkct1cBf90tP47BaW/mO34T+rfdxP0dphM9ZsCxwNXAzDbtEz9eo/xsj/0feUIfrBMZfLfbAtwOfGnWc6cy6H2+lu5qR9d+HPAf3XOnjqHGZwCXdv+YFwNP7drD4OZJ3wO+Mzv8xnj89gA+AlwJXAYcvb3jN4EaZ4fHRI8Zg47Q7wMbu8c/T9PxGtVn2+Hpkpos96stkhoZHpKaGB6SmhgekpoYHpKaGB6Smhgekpr8H9AzLPQCxVDBAAAAAElFTkSuQmCC;" vertex="1" parent="1">
          <mxGeometry x="-6" y="651" width="271" height="248" as="geometry" />
        </mxCell>
      </root>
    </mxGraphModel>
  </diagram>
</mxfile>
